<?xml version="1.0" encoding="UTF-8"?>
<svg xmlns="http://www.w3.org/2000/svg" xmlns:xlink="http://www.w3.org/1999/xlink" width="480px" height="480px" viewBox="0 0 480 480" version="1.1">
<g id="surface321135">
<path style=" stroke:none;fill-rule:nonzero;fill:rgb(21.960784%,55.686275%,23.529412%);fill-opacity:1;" d="M 172.039062 191.21875 L 122.96875 218.371094 C 121.128906 219.378906 120 221.261719 120 223.289062 L 120 277.621094 C 120 279.648438 121.128906 281.519531 122.96875 282.539062 L 172.050781 309.710938 C 173.878906 310.71875 176.148438 310.71875 177.980469 309.710938 L 227.050781 282.539062 C 228.871094 281.519531 230 279.648438 230 277.621094 L 230 223.289062 C 230 221.261719 228.871094 219.390625 227.03125 218.371094 L 177.96875 191.21875 C 177.050781 190.710938 176.019531 190.460938 175 190.460938 C 173.96875 190.460938 172.949219 190.710938 172.03125 191.21875 M 424.511719 240.128906 L 416.328125 244.648438 C 416.019531 244.820312 415.839844 245.128906 415.839844 245.46875 L 415.839844 254.53125 C 415.839844 254.871094 416.03125 255.179688 416.328125 255.351562 L 424.511719 259.878906 C 424.820312 260.050781 425.191406 260.050781 425.5 259.878906 L 433.679688 255.351562 C 433.980469 255.179688 434.171875 254.871094 434.171875 254.53125 L 434.171875 245.46875 C 434.171875 245.128906 433.980469 244.820312 433.671875 244.648438 L 425.488281 240.128906 C 425.339844 240.039062 425.171875 240 425 240 C 424.828125 240 424.660156 240.039062 424.511719 240.128906 "/>
<path style=" stroke:none;fill-rule:nonzero;fill:rgb(21.568627%,27.843137%,30.980392%);fill-opacity:1;" d="M 357.511719 133.640625 L 333.621094 120.308594 C 332.871094 119.890625 331.949219 119.898438 331.210938 120.339844 C 330.46875 120.78125 330.011719 121.570312 330.011719 122.429688 L 330 202.949219 L 307.96875 190.761719 C 307.050781 190.25 306.019531 190 305 190 C 303.980469 190 302.949219 190.25 302.03125 190.761719 L 302.039062 190.761719 L 252.96875 217.910156 C 251.128906 218.921875 250 220.800781 250 222.820312 L 250 277.148438 C 250 279.179688 251.128906 281.050781 252.96875 282.070312 L 302.050781 309.238281 C 303.878906 310.25 306.148438 310.25 307.980469 309.238281 L 357.050781 282.070312 C 358.871094 281.058594 360 279.179688 360 277.148438 L 360 137.878906 C 360 136.121094 359.039062 134.5 357.511719 133.640625 Z M 328.660156 264.578125 L 306.359375 276.929688 C 305.53125 277.390625 304.5 277.390625 303.671875 276.929688 L 281.359375 264.578125 C 280.511719 264.121094 280 263.261719 280 262.339844 L 280 237.640625 C 280 236.71875 280.511719 235.871094 281.351562 235.398438 L 303.660156 223.058594 L 303.648438 223.058594 C 304.070312 222.828125 304.53125 222.71875 305 222.71875 C 305.46875 222.71875 305.929688 222.839844 306.351562 223.058594 L 328.648438 235.398438 C 329.488281 235.871094 330 236.730469 330 237.648438 L 330 262.351562 C 330 263.261719 329.488281 264.121094 328.660156 264.578125 Z M 328.660156 264.578125 "/>
<path style=" stroke:none;fill-rule:nonzero;fill:rgb(18.039216%,49.019608%,19.607843%);fill-opacity:1;" d="M 172.039062 191.21875 L 120 277.621094 C 120 279.648438 121.128906 281.519531 122.96875 282.539062 L 172.050781 309.710938 C 173.878906 310.71875 176.148438 310.71875 177.980469 309.710938 L 230 223.289062 C 230 221.261719 228.871094 219.390625 227.03125 218.371094 L 177.96875 191.21875 C 177.050781 190.710938 176.019531 190.460938 175 190.460938 C 173.96875 190.460938 172.949219 190.710938 172.03125 191.21875 "/>
<path style=" stroke:none;fill-rule:nonzero;fill:rgb(29.803922%,68.627451%,31.372549%);fill-opacity:1;" d="M 172.039062 191.21875 L 122.96875 218.371094 C 121.128906 219.378906 120 221.261719 120 223.289062 L 172.039062 309.710938 C 173.871094 310.71875 176.140625 310.71875 177.96875 309.710938 L 227.039062 282.539062 C 228.871094 281.519531 230 279.648438 230 277.621094 L 177.96875 191.21875 C 177.050781 190.710938 176.019531 190.460938 175 190.460938 C 173.96875 190.460938 172.949219 190.710938 172.03125 191.21875 "/>
<path style=" stroke:none;fill-rule:nonzero;fill:rgb(21.568627%,27.843137%,30.980392%);fill-opacity:1;" d="M 477.03125 217.910156 L 427.96875 190.761719 C 427.050781 190.25 426.019531 190 425 190 C 423.980469 190 422.949219 190.25 422.03125 190.761719 L 422.039062 190.761719 L 372.96875 217.910156 C 371.140625 218.921875 370 220.839844 370 222.941406 L 370 277.050781 C 370 279.140625 371.140625 281.070312 372.96875 282.078125 L 422.050781 309.25 C 423.890625 310.269531 426.140625 310.269531 427.980469 309.25 L 450.609375 296.71875 C 452.679688 295.570312 452.671875 292.601562 450.589844 291.460938 L 401.351562 264.589844 C 400.519531 264.121094 400 263.25 400 262.308594 L 400 237.648438 C 400 236.730469 400.5 235.878906 401.300781 235.441406 L 423.648438 223.078125 L 423.640625 223.078125 C 424.058594 222.851562 424.519531 222.738281 424.988281 222.738281 C 425.460938 222.738281 425.921875 222.859375 426.339844 223.078125 L 448.691406 235.449219 C 449.488281 235.890625 449.988281 236.738281 449.988281 237.660156 L 449.988281 257.78125 C 449.988281 258.640625 450.449219 259.441406 451.199219 259.871094 C 451.949219 260.289062 452.871094 260.289062 453.621094 259.859375 L 477.601562 245.929688 C 479.078125 245.070312 480 243.480469 480 241.761719 L 480 222.960938 C 480 220.851562 478.859375 218.921875 477.03125 217.910156 Z M 107.03125 217.910156 L 57.96875 190.761719 C 57.050781 190.25 56.019531 190 55 190 C 53.980469 190 52.949219 190.25 52.03125 190.761719 L 52.039062 190.761719 L 2.96875 217.910156 C 1.140625 218.921875 0 220.839844 0 222.941406 L 0 297.589844 C 0 298.449219 0.460938 299.25 1.210938 299.679688 C 1.960938 300.101562 2.878906 300.101562 3.628906 299.671875 L 27.609375 285.738281 C 29.089844 284.878906 30 283.289062 30 281.570312 L 30 237.640625 C 30 236.71875 30.5 235.871094 31.300781 235.429688 L 53.648438 223.070312 C 54.070312 222.839844 54.53125 222.730469 55 222.730469 C 55.46875 222.730469 55.929688 222.851562 56.351562 223.070312 L 78.699219 235.441406 C 79.5 235.878906 80 236.730469 80 237.648438 L 80 281.578125 C 80 283.300781 80.910156 284.890625 82.398438 285.75 L 106.378906 299.679688 C 107.128906 300.109375 108.050781 300.109375 108.800781 299.691406 C 109.539062 299.25 110 298.449219 110 297.589844 L 110 222.949219 C 110 220.851562 108.859375 218.921875 107.03125 217.910156 Z M 107.03125 217.910156 "/>
</g>
</svg>
